<svg width="40" height="41" viewBox="0 0 40 41" fill="none" xmlns="http://www.w3.org/2000/svg">
<path d="M7.85713 27.1837C11.4075 27.1837 14.2857 24.3055 14.2857 20.7551C14.2857 17.2047 11.4075 14.3265 7.85713 14.3265C4.30673 14.3265 1.42856 17.2047 1.42856 20.7551C1.42856 24.3055 4.30673 27.1837 7.85713 27.1837Z" stroke="#0070F0" stroke-width="2.5" stroke-linecap="round" stroke-linejoin="round"/>
<path d="M32.1428 39.3265C35.6932 39.3265 38.5714 36.4483 38.5714 32.8979C38.5714 29.3475 35.6932 26.4694 32.1428 26.4694C28.5924 26.4694 25.7143 29.3475 25.7143 32.8979C25.7143 36.4483 28.5924 39.3265 32.1428 39.3265Z" stroke="#0070F0" stroke-width="2.5" stroke-linecap="round" stroke-linejoin="round"/>
<path d="M32.1428 15.0408C35.6932 15.0408 38.5714 12.1626 38.5714 8.61223C38.5714 5.06182 35.6932 2.18365 32.1428 2.18365C28.5924 2.18365 25.7143 5.06182 25.7143 8.61223C25.7143 12.1626 28.5924 15.0408 32.1428 15.0408Z" stroke="#0070F0" stroke-width="2.5" stroke-linecap="round" stroke-linejoin="round"/>
<path d="M13.6 17.8979L26.4 11.4694" stroke="#0070F0" stroke-width="2.5" stroke-linecap="round" stroke-linejoin="round"/>
<path d="M13.6 23.6122L26.4 30.0408" stroke="#0070F0" stroke-width="2.5" stroke-linecap="round" stroke-linejoin="round"/>
</svg>
